%TF.GenerationSoftware,KiCad,Pcbnew,10.0.4*%
%TF.CreationDate,2026-07-23T16:21:59+03:00*%
%TF.ProjectId,PCB1,50434231-2e6b-4696-9361-645f70636258,rev?*%
%TF.SameCoordinates,Original*%
%TF.FileFunction,Legend,Top*%
%TF.FilePolarity,Positive*%
%FSLAX46Y46*%
G04 Gerber Fmt 4.6, Leading zero omitted, Abs format (unit mm)*
G04 Created by KiCad (PCBNEW 10.0.4) date 2026-07-23 16:21:59*
%MOMM*%
%LPD*%
G01*
G04 APERTURE LIST*
%ADD10C,0.100000*%
%ADD11C,0.150000*%
%ADD12C,0.120000*%
G04 APERTURE END LIST*
D10*
X87256265Y-77604912D02*
X87399122Y-77652531D01*
X87399122Y-77652531D02*
X87637217Y-77652531D01*
X87637217Y-77652531D02*
X87732455Y-77604912D01*
X87732455Y-77604912D02*
X87780074Y-77557292D01*
X87780074Y-77557292D02*
X87827693Y-77462054D01*
X87827693Y-77462054D02*
X87827693Y-77366816D01*
X87827693Y-77366816D02*
X87780074Y-77271578D01*
X87780074Y-77271578D02*
X87732455Y-77223959D01*
X87732455Y-77223959D02*
X87637217Y-77176340D01*
X87637217Y-77176340D02*
X87446741Y-77128721D01*
X87446741Y-77128721D02*
X87351503Y-77081102D01*
X87351503Y-77081102D02*
X87303884Y-77033483D01*
X87303884Y-77033483D02*
X87256265Y-76938245D01*
X87256265Y-76938245D02*
X87256265Y-76843007D01*
X87256265Y-76843007D02*
X87303884Y-76747769D01*
X87303884Y-76747769D02*
X87351503Y-76700150D01*
X87351503Y-76700150D02*
X87446741Y-76652531D01*
X87446741Y-76652531D02*
X87684836Y-76652531D01*
X87684836Y-76652531D02*
X87827693Y-76700150D01*
X88256265Y-77652531D02*
X88256265Y-76985864D01*
X88256265Y-77081102D02*
X88303884Y-77033483D01*
X88303884Y-77033483D02*
X88399122Y-76985864D01*
X88399122Y-76985864D02*
X88541979Y-76985864D01*
X88541979Y-76985864D02*
X88637217Y-77033483D01*
X88637217Y-77033483D02*
X88684836Y-77128721D01*
X88684836Y-77128721D02*
X88684836Y-77652531D01*
X88684836Y-77128721D02*
X88732455Y-77033483D01*
X88732455Y-77033483D02*
X88827693Y-76985864D01*
X88827693Y-76985864D02*
X88970550Y-76985864D01*
X88970550Y-76985864D02*
X89065789Y-77033483D01*
X89065789Y-77033483D02*
X89113408Y-77128721D01*
X89113408Y-77128721D02*
X89113408Y-77652531D01*
X90018169Y-77652531D02*
X90018169Y-77128721D01*
X90018169Y-77128721D02*
X89970550Y-77033483D01*
X89970550Y-77033483D02*
X89875312Y-76985864D01*
X89875312Y-76985864D02*
X89684836Y-76985864D01*
X89684836Y-76985864D02*
X89589598Y-77033483D01*
X90018169Y-77604912D02*
X89922931Y-77652531D01*
X89922931Y-77652531D02*
X89684836Y-77652531D01*
X89684836Y-77652531D02*
X89589598Y-77604912D01*
X89589598Y-77604912D02*
X89541979Y-77509673D01*
X89541979Y-77509673D02*
X89541979Y-77414435D01*
X89541979Y-77414435D02*
X89589598Y-77319197D01*
X89589598Y-77319197D02*
X89684836Y-77271578D01*
X89684836Y-77271578D02*
X89922931Y-77271578D01*
X89922931Y-77271578D02*
X90018169Y-77223959D01*
X90494360Y-77652531D02*
X90494360Y-76985864D01*
X90494360Y-77176340D02*
X90541979Y-77081102D01*
X90541979Y-77081102D02*
X90589598Y-77033483D01*
X90589598Y-77033483D02*
X90684836Y-76985864D01*
X90684836Y-76985864D02*
X90780074Y-76985864D01*
X90970551Y-76985864D02*
X91351503Y-76985864D01*
X91113408Y-76652531D02*
X91113408Y-77509673D01*
X91113408Y-77509673D02*
X91161027Y-77604912D01*
X91161027Y-77604912D02*
X91256265Y-77652531D01*
X91256265Y-77652531D02*
X91351503Y-77652531D01*
X92446742Y-77652531D02*
X92446742Y-76652531D01*
X92446742Y-76652531D02*
X92827694Y-76652531D01*
X92827694Y-76652531D02*
X92922932Y-76700150D01*
X92922932Y-76700150D02*
X92970551Y-76747769D01*
X92970551Y-76747769D02*
X93018170Y-76843007D01*
X93018170Y-76843007D02*
X93018170Y-76985864D01*
X93018170Y-76985864D02*
X92970551Y-77081102D01*
X92970551Y-77081102D02*
X92922932Y-77128721D01*
X92922932Y-77128721D02*
X92827694Y-77176340D01*
X92827694Y-77176340D02*
X92446742Y-77176340D01*
X93589599Y-77652531D02*
X93494361Y-77604912D01*
X93494361Y-77604912D02*
X93446742Y-77509673D01*
X93446742Y-77509673D02*
X93446742Y-76652531D01*
X94399123Y-77652531D02*
X94399123Y-77128721D01*
X94399123Y-77128721D02*
X94351504Y-77033483D01*
X94351504Y-77033483D02*
X94256266Y-76985864D01*
X94256266Y-76985864D02*
X94065790Y-76985864D01*
X94065790Y-76985864D02*
X93970552Y-77033483D01*
X94399123Y-77604912D02*
X94303885Y-77652531D01*
X94303885Y-77652531D02*
X94065790Y-77652531D01*
X94065790Y-77652531D02*
X93970552Y-77604912D01*
X93970552Y-77604912D02*
X93922933Y-77509673D01*
X93922933Y-77509673D02*
X93922933Y-77414435D01*
X93922933Y-77414435D02*
X93970552Y-77319197D01*
X93970552Y-77319197D02*
X94065790Y-77271578D01*
X94065790Y-77271578D02*
X94303885Y-77271578D01*
X94303885Y-77271578D02*
X94399123Y-77223959D01*
X94875314Y-76985864D02*
X94875314Y-77652531D01*
X94875314Y-77081102D02*
X94922933Y-77033483D01*
X94922933Y-77033483D02*
X95018171Y-76985864D01*
X95018171Y-76985864D02*
X95161028Y-76985864D01*
X95161028Y-76985864D02*
X95256266Y-77033483D01*
X95256266Y-77033483D02*
X95303885Y-77128721D01*
X95303885Y-77128721D02*
X95303885Y-77652531D01*
X95637219Y-76985864D02*
X96018171Y-76985864D01*
X95780076Y-76652531D02*
X95780076Y-77509673D01*
X95780076Y-77509673D02*
X95827695Y-77604912D01*
X95827695Y-77604912D02*
X95922933Y-77652531D01*
X95922933Y-77652531D02*
X96018171Y-77652531D01*
X97113410Y-77652531D02*
X97113410Y-76652531D01*
X97113410Y-76652531D02*
X97494362Y-76652531D01*
X97494362Y-76652531D02*
X97589600Y-76700150D01*
X97589600Y-76700150D02*
X97637219Y-76747769D01*
X97637219Y-76747769D02*
X97684838Y-76843007D01*
X97684838Y-76843007D02*
X97684838Y-76985864D01*
X97684838Y-76985864D02*
X97637219Y-77081102D01*
X97637219Y-77081102D02*
X97589600Y-77128721D01*
X97589600Y-77128721D02*
X97494362Y-77176340D01*
X97494362Y-77176340D02*
X97113410Y-77176340D01*
X98113410Y-77652531D02*
X98113410Y-76985864D01*
X98113410Y-77176340D02*
X98161029Y-77081102D01*
X98161029Y-77081102D02*
X98208648Y-77033483D01*
X98208648Y-77033483D02*
X98303886Y-76985864D01*
X98303886Y-76985864D02*
X98399124Y-76985864D01*
X98875315Y-77652531D02*
X98780077Y-77604912D01*
X98780077Y-77604912D02*
X98732458Y-77557292D01*
X98732458Y-77557292D02*
X98684839Y-77462054D01*
X98684839Y-77462054D02*
X98684839Y-77176340D01*
X98684839Y-77176340D02*
X98732458Y-77081102D01*
X98732458Y-77081102D02*
X98780077Y-77033483D01*
X98780077Y-77033483D02*
X98875315Y-76985864D01*
X98875315Y-76985864D02*
X99018172Y-76985864D01*
X99018172Y-76985864D02*
X99113410Y-77033483D01*
X99113410Y-77033483D02*
X99161029Y-77081102D01*
X99161029Y-77081102D02*
X99208648Y-77176340D01*
X99208648Y-77176340D02*
X99208648Y-77462054D01*
X99208648Y-77462054D02*
X99161029Y-77557292D01*
X99161029Y-77557292D02*
X99113410Y-77604912D01*
X99113410Y-77604912D02*
X99018172Y-77652531D01*
X99018172Y-77652531D02*
X98875315Y-77652531D01*
X99637220Y-76985864D02*
X99637220Y-77843007D01*
X99637220Y-77843007D02*
X99589601Y-77938245D01*
X99589601Y-77938245D02*
X99494363Y-77985864D01*
X99494363Y-77985864D02*
X99446744Y-77985864D01*
X99637220Y-76652531D02*
X99589601Y-76700150D01*
X99589601Y-76700150D02*
X99637220Y-76747769D01*
X99637220Y-76747769D02*
X99684839Y-76700150D01*
X99684839Y-76700150D02*
X99637220Y-76652531D01*
X99637220Y-76652531D02*
X99637220Y-76747769D01*
X100494362Y-77604912D02*
X100399124Y-77652531D01*
X100399124Y-77652531D02*
X100208648Y-77652531D01*
X100208648Y-77652531D02*
X100113410Y-77604912D01*
X100113410Y-77604912D02*
X100065791Y-77509673D01*
X100065791Y-77509673D02*
X100065791Y-77128721D01*
X100065791Y-77128721D02*
X100113410Y-77033483D01*
X100113410Y-77033483D02*
X100208648Y-76985864D01*
X100208648Y-76985864D02*
X100399124Y-76985864D01*
X100399124Y-76985864D02*
X100494362Y-77033483D01*
X100494362Y-77033483D02*
X100541981Y-77128721D01*
X100541981Y-77128721D02*
X100541981Y-77223959D01*
X100541981Y-77223959D02*
X100065791Y-77319197D01*
X101399124Y-77604912D02*
X101303886Y-77652531D01*
X101303886Y-77652531D02*
X101113410Y-77652531D01*
X101113410Y-77652531D02*
X101018172Y-77604912D01*
X101018172Y-77604912D02*
X100970553Y-77557292D01*
X100970553Y-77557292D02*
X100922934Y-77462054D01*
X100922934Y-77462054D02*
X100922934Y-77176340D01*
X100922934Y-77176340D02*
X100970553Y-77081102D01*
X100970553Y-77081102D02*
X101018172Y-77033483D01*
X101018172Y-77033483D02*
X101113410Y-76985864D01*
X101113410Y-76985864D02*
X101303886Y-76985864D01*
X101303886Y-76985864D02*
X101399124Y-77033483D01*
X101684839Y-76985864D02*
X102065791Y-76985864D01*
X101827696Y-76652531D02*
X101827696Y-77509673D01*
X101827696Y-77509673D02*
X101875315Y-77604912D01*
X101875315Y-77604912D02*
X101970553Y-77652531D01*
X101970553Y-77652531D02*
X102065791Y-77652531D01*
X87303884Y-79262475D02*
X87303884Y-78262475D01*
X87303884Y-78262475D02*
X87541979Y-78262475D01*
X87541979Y-78262475D02*
X87684836Y-78310094D01*
X87684836Y-78310094D02*
X87780074Y-78405332D01*
X87780074Y-78405332D02*
X87827693Y-78500570D01*
X87827693Y-78500570D02*
X87875312Y-78691046D01*
X87875312Y-78691046D02*
X87875312Y-78833903D01*
X87875312Y-78833903D02*
X87827693Y-79024379D01*
X87827693Y-79024379D02*
X87780074Y-79119617D01*
X87780074Y-79119617D02*
X87684836Y-79214856D01*
X87684836Y-79214856D02*
X87541979Y-79262475D01*
X87541979Y-79262475D02*
X87303884Y-79262475D01*
X88684836Y-79214856D02*
X88589598Y-79262475D01*
X88589598Y-79262475D02*
X88399122Y-79262475D01*
X88399122Y-79262475D02*
X88303884Y-79214856D01*
X88303884Y-79214856D02*
X88256265Y-79119617D01*
X88256265Y-79119617D02*
X88256265Y-78738665D01*
X88256265Y-78738665D02*
X88303884Y-78643427D01*
X88303884Y-78643427D02*
X88399122Y-78595808D01*
X88399122Y-78595808D02*
X88589598Y-78595808D01*
X88589598Y-78595808D02*
X88684836Y-78643427D01*
X88684836Y-78643427D02*
X88732455Y-78738665D01*
X88732455Y-78738665D02*
X88732455Y-78833903D01*
X88732455Y-78833903D02*
X88256265Y-78929141D01*
X89113408Y-79214856D02*
X89208646Y-79262475D01*
X89208646Y-79262475D02*
X89399122Y-79262475D01*
X89399122Y-79262475D02*
X89494360Y-79214856D01*
X89494360Y-79214856D02*
X89541979Y-79119617D01*
X89541979Y-79119617D02*
X89541979Y-79071998D01*
X89541979Y-79071998D02*
X89494360Y-78976760D01*
X89494360Y-78976760D02*
X89399122Y-78929141D01*
X89399122Y-78929141D02*
X89256265Y-78929141D01*
X89256265Y-78929141D02*
X89161027Y-78881522D01*
X89161027Y-78881522D02*
X89113408Y-78786284D01*
X89113408Y-78786284D02*
X89113408Y-78738665D01*
X89113408Y-78738665D02*
X89161027Y-78643427D01*
X89161027Y-78643427D02*
X89256265Y-78595808D01*
X89256265Y-78595808D02*
X89399122Y-78595808D01*
X89399122Y-78595808D02*
X89494360Y-78643427D01*
X89970551Y-79262475D02*
X89970551Y-78595808D01*
X89970551Y-78262475D02*
X89922932Y-78310094D01*
X89922932Y-78310094D02*
X89970551Y-78357713D01*
X89970551Y-78357713D02*
X90018170Y-78310094D01*
X90018170Y-78310094D02*
X89970551Y-78262475D01*
X89970551Y-78262475D02*
X89970551Y-78357713D01*
X90875312Y-78595808D02*
X90875312Y-79405332D01*
X90875312Y-79405332D02*
X90827693Y-79500570D01*
X90827693Y-79500570D02*
X90780074Y-79548189D01*
X90780074Y-79548189D02*
X90684836Y-79595808D01*
X90684836Y-79595808D02*
X90541979Y-79595808D01*
X90541979Y-79595808D02*
X90446741Y-79548189D01*
X90875312Y-79214856D02*
X90780074Y-79262475D01*
X90780074Y-79262475D02*
X90589598Y-79262475D01*
X90589598Y-79262475D02*
X90494360Y-79214856D01*
X90494360Y-79214856D02*
X90446741Y-79167236D01*
X90446741Y-79167236D02*
X90399122Y-79071998D01*
X90399122Y-79071998D02*
X90399122Y-78786284D01*
X90399122Y-78786284D02*
X90446741Y-78691046D01*
X90446741Y-78691046D02*
X90494360Y-78643427D01*
X90494360Y-78643427D02*
X90589598Y-78595808D01*
X90589598Y-78595808D02*
X90780074Y-78595808D01*
X90780074Y-78595808D02*
X90875312Y-78643427D01*
X91351503Y-78595808D02*
X91351503Y-79262475D01*
X91351503Y-78691046D02*
X91399122Y-78643427D01*
X91399122Y-78643427D02*
X91494360Y-78595808D01*
X91494360Y-78595808D02*
X91637217Y-78595808D01*
X91637217Y-78595808D02*
X91732455Y-78643427D01*
X91732455Y-78643427D02*
X91780074Y-78738665D01*
X91780074Y-78738665D02*
X91780074Y-79262475D01*
X92637217Y-79214856D02*
X92541979Y-79262475D01*
X92541979Y-79262475D02*
X92351503Y-79262475D01*
X92351503Y-79262475D02*
X92256265Y-79214856D01*
X92256265Y-79214856D02*
X92208646Y-79119617D01*
X92208646Y-79119617D02*
X92208646Y-78738665D01*
X92208646Y-78738665D02*
X92256265Y-78643427D01*
X92256265Y-78643427D02*
X92351503Y-78595808D01*
X92351503Y-78595808D02*
X92541979Y-78595808D01*
X92541979Y-78595808D02*
X92637217Y-78643427D01*
X92637217Y-78643427D02*
X92684836Y-78738665D01*
X92684836Y-78738665D02*
X92684836Y-78833903D01*
X92684836Y-78833903D02*
X92208646Y-78929141D01*
X93541979Y-79262475D02*
X93541979Y-78262475D01*
X93541979Y-79214856D02*
X93446741Y-79262475D01*
X93446741Y-79262475D02*
X93256265Y-79262475D01*
X93256265Y-79262475D02*
X93161027Y-79214856D01*
X93161027Y-79214856D02*
X93113408Y-79167236D01*
X93113408Y-79167236D02*
X93065789Y-79071998D01*
X93065789Y-79071998D02*
X93065789Y-78786284D01*
X93065789Y-78786284D02*
X93113408Y-78691046D01*
X93113408Y-78691046D02*
X93161027Y-78643427D01*
X93161027Y-78643427D02*
X93256265Y-78595808D01*
X93256265Y-78595808D02*
X93446741Y-78595808D01*
X93446741Y-78595808D02*
X93541979Y-78643427D01*
X94780075Y-79262475D02*
X94780075Y-78262475D01*
X94780075Y-78643427D02*
X94875313Y-78595808D01*
X94875313Y-78595808D02*
X95065789Y-78595808D01*
X95065789Y-78595808D02*
X95161027Y-78643427D01*
X95161027Y-78643427D02*
X95208646Y-78691046D01*
X95208646Y-78691046D02*
X95256265Y-78786284D01*
X95256265Y-78786284D02*
X95256265Y-79071998D01*
X95256265Y-79071998D02*
X95208646Y-79167236D01*
X95208646Y-79167236D02*
X95161027Y-79214856D01*
X95161027Y-79214856D02*
X95065789Y-79262475D01*
X95065789Y-79262475D02*
X94875313Y-79262475D01*
X94875313Y-79262475D02*
X94780075Y-79214856D01*
X95589599Y-78595808D02*
X95827694Y-79262475D01*
X96065789Y-78595808D02*
X95827694Y-79262475D01*
X95827694Y-79262475D02*
X95732456Y-79500570D01*
X95732456Y-79500570D02*
X95684837Y-79548189D01*
X95684837Y-79548189D02*
X95589599Y-79595808D01*
X97161028Y-78976760D02*
X97637218Y-78976760D01*
X97065790Y-79262475D02*
X97399123Y-78262475D01*
X97399123Y-78262475D02*
X97732456Y-79262475D01*
X98065790Y-78595808D02*
X98065790Y-79262475D01*
X98065790Y-78691046D02*
X98113409Y-78643427D01*
X98113409Y-78643427D02*
X98208647Y-78595808D01*
X98208647Y-78595808D02*
X98351504Y-78595808D01*
X98351504Y-78595808D02*
X98446742Y-78643427D01*
X98446742Y-78643427D02*
X98494361Y-78738665D01*
X98494361Y-78738665D02*
X98494361Y-79262475D01*
X98827695Y-78595808D02*
X99208647Y-78595808D01*
X98970552Y-78262475D02*
X98970552Y-79119617D01*
X98970552Y-79119617D02*
X99018171Y-79214856D01*
X99018171Y-79214856D02*
X99113409Y-79262475D01*
X99113409Y-79262475D02*
X99208647Y-79262475D01*
X99541981Y-79262475D02*
X99541981Y-78595808D01*
X99541981Y-78786284D02*
X99589600Y-78691046D01*
X99589600Y-78691046D02*
X99637219Y-78643427D01*
X99637219Y-78643427D02*
X99732457Y-78595808D01*
X99732457Y-78595808D02*
X99827695Y-78595808D01*
X100541981Y-79214856D02*
X100446743Y-79262475D01*
X100446743Y-79262475D02*
X100256267Y-79262475D01*
X100256267Y-79262475D02*
X100161029Y-79214856D01*
X100161029Y-79214856D02*
X100113410Y-79119617D01*
X100113410Y-79119617D02*
X100113410Y-78738665D01*
X100113410Y-78738665D02*
X100161029Y-78643427D01*
X100161029Y-78643427D02*
X100256267Y-78595808D01*
X100256267Y-78595808D02*
X100446743Y-78595808D01*
X100446743Y-78595808D02*
X100541981Y-78643427D01*
X100541981Y-78643427D02*
X100589600Y-78738665D01*
X100589600Y-78738665D02*
X100589600Y-78833903D01*
X100589600Y-78833903D02*
X100113410Y-78929141D01*
X101446743Y-79262475D02*
X101446743Y-78738665D01*
X101446743Y-78738665D02*
X101399124Y-78643427D01*
X101399124Y-78643427D02*
X101303886Y-78595808D01*
X101303886Y-78595808D02*
X101113410Y-78595808D01*
X101113410Y-78595808D02*
X101018172Y-78643427D01*
X101446743Y-79214856D02*
X101351505Y-79262475D01*
X101351505Y-79262475D02*
X101113410Y-79262475D01*
X101113410Y-79262475D02*
X101018172Y-79214856D01*
X101018172Y-79214856D02*
X100970553Y-79119617D01*
X100970553Y-79119617D02*
X100970553Y-79024379D01*
X100970553Y-79024379D02*
X101018172Y-78929141D01*
X101018172Y-78929141D02*
X101113410Y-78881522D01*
X101113410Y-78881522D02*
X101351505Y-78881522D01*
X101351505Y-78881522D02*
X101446743Y-78833903D01*
X101875315Y-79214856D02*
X101970553Y-79262475D01*
X101970553Y-79262475D02*
X102161029Y-79262475D01*
X102161029Y-79262475D02*
X102256267Y-79214856D01*
X102256267Y-79214856D02*
X102303886Y-79119617D01*
X102303886Y-79119617D02*
X102303886Y-79071998D01*
X102303886Y-79071998D02*
X102256267Y-78976760D01*
X102256267Y-78976760D02*
X102161029Y-78929141D01*
X102161029Y-78929141D02*
X102018172Y-78929141D01*
X102018172Y-78929141D02*
X101922934Y-78881522D01*
X101922934Y-78881522D02*
X101875315Y-78786284D01*
X101875315Y-78786284D02*
X101875315Y-78738665D01*
X101875315Y-78738665D02*
X101922934Y-78643427D01*
X101922934Y-78643427D02*
X102018172Y-78595808D01*
X102018172Y-78595808D02*
X102161029Y-78595808D01*
X102161029Y-78595808D02*
X102256267Y-78643427D01*
X92589600Y-79967657D02*
X92637219Y-79920038D01*
X92637219Y-79920038D02*
X92732457Y-79872419D01*
X92732457Y-79872419D02*
X92970552Y-79872419D01*
X92970552Y-79872419D02*
X93065790Y-79920038D01*
X93065790Y-79920038D02*
X93113409Y-79967657D01*
X93113409Y-79967657D02*
X93161028Y-80062895D01*
X93161028Y-80062895D02*
X93161028Y-80158133D01*
X93161028Y-80158133D02*
X93113409Y-80300990D01*
X93113409Y-80300990D02*
X92541981Y-80872419D01*
X92541981Y-80872419D02*
X93161028Y-80872419D01*
X93780076Y-79872419D02*
X93875314Y-79872419D01*
X93875314Y-79872419D02*
X93970552Y-79920038D01*
X93970552Y-79920038D02*
X94018171Y-79967657D01*
X94018171Y-79967657D02*
X94065790Y-80062895D01*
X94065790Y-80062895D02*
X94113409Y-80253371D01*
X94113409Y-80253371D02*
X94113409Y-80491466D01*
X94113409Y-80491466D02*
X94065790Y-80681942D01*
X94065790Y-80681942D02*
X94018171Y-80777180D01*
X94018171Y-80777180D02*
X93970552Y-80824800D01*
X93970552Y-80824800D02*
X93875314Y-80872419D01*
X93875314Y-80872419D02*
X93780076Y-80872419D01*
X93780076Y-80872419D02*
X93684838Y-80824800D01*
X93684838Y-80824800D02*
X93637219Y-80777180D01*
X93637219Y-80777180D02*
X93589600Y-80681942D01*
X93589600Y-80681942D02*
X93541981Y-80491466D01*
X93541981Y-80491466D02*
X93541981Y-80253371D01*
X93541981Y-80253371D02*
X93589600Y-80062895D01*
X93589600Y-80062895D02*
X93637219Y-79967657D01*
X93637219Y-79967657D02*
X93684838Y-79920038D01*
X93684838Y-79920038D02*
X93780076Y-79872419D01*
X94494362Y-79967657D02*
X94541981Y-79920038D01*
X94541981Y-79920038D02*
X94637219Y-79872419D01*
X94637219Y-79872419D02*
X94875314Y-79872419D01*
X94875314Y-79872419D02*
X94970552Y-79920038D01*
X94970552Y-79920038D02*
X95018171Y-79967657D01*
X95018171Y-79967657D02*
X95065790Y-80062895D01*
X95065790Y-80062895D02*
X95065790Y-80158133D01*
X95065790Y-80158133D02*
X95018171Y-80300990D01*
X95018171Y-80300990D02*
X94446743Y-80872419D01*
X94446743Y-80872419D02*
X95065790Y-80872419D01*
X95922933Y-79872419D02*
X95732457Y-79872419D01*
X95732457Y-79872419D02*
X95637219Y-79920038D01*
X95637219Y-79920038D02*
X95589600Y-79967657D01*
X95589600Y-79967657D02*
X95494362Y-80110514D01*
X95494362Y-80110514D02*
X95446743Y-80300990D01*
X95446743Y-80300990D02*
X95446743Y-80681942D01*
X95446743Y-80681942D02*
X95494362Y-80777180D01*
X95494362Y-80777180D02*
X95541981Y-80824800D01*
X95541981Y-80824800D02*
X95637219Y-80872419D01*
X95637219Y-80872419D02*
X95827695Y-80872419D01*
X95827695Y-80872419D02*
X95922933Y-80824800D01*
X95922933Y-80824800D02*
X95970552Y-80777180D01*
X95970552Y-80777180D02*
X96018171Y-80681942D01*
X96018171Y-80681942D02*
X96018171Y-80443847D01*
X96018171Y-80443847D02*
X95970552Y-80348609D01*
X95970552Y-80348609D02*
X95922933Y-80300990D01*
X95922933Y-80300990D02*
X95827695Y-80253371D01*
X95827695Y-80253371D02*
X95637219Y-80253371D01*
X95637219Y-80253371D02*
X95541981Y-80300990D01*
X95541981Y-80300990D02*
X95494362Y-80348609D01*
X95494362Y-80348609D02*
X95446743Y-80443847D01*
D11*
X61833333Y-63407200D02*
X61976190Y-63454819D01*
X61976190Y-63454819D02*
X62214285Y-63454819D01*
X62214285Y-63454819D02*
X62309523Y-63407200D01*
X62309523Y-63407200D02*
X62357142Y-63359580D01*
X62357142Y-63359580D02*
X62404761Y-63264342D01*
X62404761Y-63264342D02*
X62404761Y-63169104D01*
X62404761Y-63169104D02*
X62357142Y-63073866D01*
X62357142Y-63073866D02*
X62309523Y-63026247D01*
X62309523Y-63026247D02*
X62214285Y-62978628D01*
X62214285Y-62978628D02*
X62023809Y-62931009D01*
X62023809Y-62931009D02*
X61928571Y-62883390D01*
X61928571Y-62883390D02*
X61880952Y-62835771D01*
X61880952Y-62835771D02*
X61833333Y-62740533D01*
X61833333Y-62740533D02*
X61833333Y-62645295D01*
X61833333Y-62645295D02*
X61880952Y-62550057D01*
X61880952Y-62550057D02*
X61928571Y-62502438D01*
X61928571Y-62502438D02*
X62023809Y-62454819D01*
X62023809Y-62454819D02*
X62261904Y-62454819D01*
X62261904Y-62454819D02*
X62404761Y-62502438D01*
X63023809Y-62454819D02*
X63214285Y-62454819D01*
X63214285Y-62454819D02*
X63309523Y-62502438D01*
X63309523Y-62502438D02*
X63404761Y-62597676D01*
X63404761Y-62597676D02*
X63452380Y-62788152D01*
X63452380Y-62788152D02*
X63452380Y-63121485D01*
X63452380Y-63121485D02*
X63404761Y-63311961D01*
X63404761Y-63311961D02*
X63309523Y-63407200D01*
X63309523Y-63407200D02*
X63214285Y-63454819D01*
X63214285Y-63454819D02*
X63023809Y-63454819D01*
X63023809Y-63454819D02*
X62928571Y-63407200D01*
X62928571Y-63407200D02*
X62833333Y-63311961D01*
X62833333Y-63311961D02*
X62785714Y-63121485D01*
X62785714Y-63121485D02*
X62785714Y-62788152D01*
X62785714Y-62788152D02*
X62833333Y-62597676D01*
X62833333Y-62597676D02*
X62928571Y-62502438D01*
X62928571Y-62502438D02*
X63023809Y-62454819D01*
X63880952Y-63454819D02*
X63880952Y-62454819D01*
X64833332Y-63454819D02*
X64357142Y-63454819D01*
X64357142Y-63454819D02*
X64357142Y-62454819D01*
X65880952Y-63407200D02*
X66023809Y-63454819D01*
X66023809Y-63454819D02*
X66261904Y-63454819D01*
X66261904Y-63454819D02*
X66357142Y-63407200D01*
X66357142Y-63407200D02*
X66404761Y-63359580D01*
X66404761Y-63359580D02*
X66452380Y-63264342D01*
X66452380Y-63264342D02*
X66452380Y-63169104D01*
X66452380Y-63169104D02*
X66404761Y-63073866D01*
X66404761Y-63073866D02*
X66357142Y-63026247D01*
X66357142Y-63026247D02*
X66261904Y-62978628D01*
X66261904Y-62978628D02*
X66071428Y-62931009D01*
X66071428Y-62931009D02*
X65976190Y-62883390D01*
X65976190Y-62883390D02*
X65928571Y-62835771D01*
X65928571Y-62835771D02*
X65880952Y-62740533D01*
X65880952Y-62740533D02*
X65880952Y-62645295D01*
X65880952Y-62645295D02*
X65928571Y-62550057D01*
X65928571Y-62550057D02*
X65976190Y-62502438D01*
X65976190Y-62502438D02*
X66071428Y-62454819D01*
X66071428Y-62454819D02*
X66309523Y-62454819D01*
X66309523Y-62454819D02*
X66452380Y-62502438D01*
X66880952Y-62931009D02*
X67214285Y-62931009D01*
X67357142Y-63454819D02*
X66880952Y-63454819D01*
X66880952Y-63454819D02*
X66880952Y-62454819D01*
X66880952Y-62454819D02*
X67357142Y-62454819D01*
X67785714Y-63454819D02*
X67785714Y-62454819D01*
X67785714Y-62454819D02*
X68357142Y-63454819D01*
X68357142Y-63454819D02*
X68357142Y-62454819D01*
X68785714Y-63407200D02*
X68928571Y-63454819D01*
X68928571Y-63454819D02*
X69166666Y-63454819D01*
X69166666Y-63454819D02*
X69261904Y-63407200D01*
X69261904Y-63407200D02*
X69309523Y-63359580D01*
X69309523Y-63359580D02*
X69357142Y-63264342D01*
X69357142Y-63264342D02*
X69357142Y-63169104D01*
X69357142Y-63169104D02*
X69309523Y-63073866D01*
X69309523Y-63073866D02*
X69261904Y-63026247D01*
X69261904Y-63026247D02*
X69166666Y-62978628D01*
X69166666Y-62978628D02*
X68976190Y-62931009D01*
X68976190Y-62931009D02*
X68880952Y-62883390D01*
X68880952Y-62883390D02*
X68833333Y-62835771D01*
X68833333Y-62835771D02*
X68785714Y-62740533D01*
X68785714Y-62740533D02*
X68785714Y-62645295D01*
X68785714Y-62645295D02*
X68833333Y-62550057D01*
X68833333Y-62550057D02*
X68880952Y-62502438D01*
X68880952Y-62502438D02*
X68976190Y-62454819D01*
X68976190Y-62454819D02*
X69214285Y-62454819D01*
X69214285Y-62454819D02*
X69357142Y-62502438D01*
X69976190Y-62454819D02*
X70166666Y-62454819D01*
X70166666Y-62454819D02*
X70261904Y-62502438D01*
X70261904Y-62502438D02*
X70357142Y-62597676D01*
X70357142Y-62597676D02*
X70404761Y-62788152D01*
X70404761Y-62788152D02*
X70404761Y-63121485D01*
X70404761Y-63121485D02*
X70357142Y-63311961D01*
X70357142Y-63311961D02*
X70261904Y-63407200D01*
X70261904Y-63407200D02*
X70166666Y-63454819D01*
X70166666Y-63454819D02*
X69976190Y-63454819D01*
X69976190Y-63454819D02*
X69880952Y-63407200D01*
X69880952Y-63407200D02*
X69785714Y-63311961D01*
X69785714Y-63311961D02*
X69738095Y-63121485D01*
X69738095Y-63121485D02*
X69738095Y-62788152D01*
X69738095Y-62788152D02*
X69785714Y-62597676D01*
X69785714Y-62597676D02*
X69880952Y-62502438D01*
X69880952Y-62502438D02*
X69976190Y-62454819D01*
X71404761Y-63454819D02*
X71071428Y-62978628D01*
X70833333Y-63454819D02*
X70833333Y-62454819D01*
X70833333Y-62454819D02*
X71214285Y-62454819D01*
X71214285Y-62454819D02*
X71309523Y-62502438D01*
X71309523Y-62502438D02*
X71357142Y-62550057D01*
X71357142Y-62550057D02*
X71404761Y-62645295D01*
X71404761Y-62645295D02*
X71404761Y-62788152D01*
X71404761Y-62788152D02*
X71357142Y-62883390D01*
X71357142Y-62883390D02*
X71309523Y-62931009D01*
X71309523Y-62931009D02*
X71214285Y-62978628D01*
X71214285Y-62978628D02*
X70833333Y-62978628D01*
X118500000Y-88454819D02*
X118500000Y-87454819D01*
X118500000Y-87454819D02*
X118738095Y-87454819D01*
X118738095Y-87454819D02*
X118880952Y-87502438D01*
X118880952Y-87502438D02*
X118976190Y-87597676D01*
X118976190Y-87597676D02*
X119023809Y-87692914D01*
X119023809Y-87692914D02*
X119071428Y-87883390D01*
X119071428Y-87883390D02*
X119071428Y-88026247D01*
X119071428Y-88026247D02*
X119023809Y-88216723D01*
X119023809Y-88216723D02*
X118976190Y-88311961D01*
X118976190Y-88311961D02*
X118880952Y-88407200D01*
X118880952Y-88407200D02*
X118738095Y-88454819D01*
X118738095Y-88454819D02*
X118500000Y-88454819D01*
X119500000Y-88454819D02*
X119500000Y-87454819D01*
X119500000Y-87931009D02*
X120071428Y-87931009D01*
X120071428Y-88454819D02*
X120071428Y-87454819D01*
X120404762Y-87454819D02*
X120976190Y-87454819D01*
X120690476Y-88454819D02*
X120690476Y-87454819D01*
X121833333Y-88454819D02*
X121261905Y-88454819D01*
X121547619Y-88454819D02*
X121547619Y-87454819D01*
X121547619Y-87454819D02*
X121452381Y-87597676D01*
X121452381Y-87597676D02*
X121357143Y-87692914D01*
X121357143Y-87692914D02*
X121261905Y-87740533D01*
X122785714Y-88454819D02*
X122214286Y-88454819D01*
X122500000Y-88454819D02*
X122500000Y-87454819D01*
X122500000Y-87454819D02*
X122404762Y-87597676D01*
X122404762Y-87597676D02*
X122309524Y-87692914D01*
X122309524Y-87692914D02*
X122214286Y-87740533D01*
X64214285Y-85454819D02*
X63880952Y-84978628D01*
X63642857Y-85454819D02*
X63642857Y-84454819D01*
X63642857Y-84454819D02*
X64023809Y-84454819D01*
X64023809Y-84454819D02*
X64119047Y-84502438D01*
X64119047Y-84502438D02*
X64166666Y-84550057D01*
X64166666Y-84550057D02*
X64214285Y-84645295D01*
X64214285Y-84645295D02*
X64214285Y-84788152D01*
X64214285Y-84788152D02*
X64166666Y-84883390D01*
X64166666Y-84883390D02*
X64119047Y-84931009D01*
X64119047Y-84931009D02*
X64023809Y-84978628D01*
X64023809Y-84978628D02*
X63642857Y-84978628D01*
X64642857Y-84931009D02*
X64976190Y-84931009D01*
X65119047Y-85454819D02*
X64642857Y-85454819D01*
X64642857Y-85454819D02*
X64642857Y-84454819D01*
X64642857Y-84454819D02*
X65119047Y-84454819D01*
X66023809Y-85454819D02*
X65547619Y-85454819D01*
X65547619Y-85454819D02*
X65547619Y-84454819D01*
X66309524Y-85169104D02*
X66785714Y-85169104D01*
X66214286Y-85454819D02*
X66547619Y-84454819D01*
X66547619Y-84454819D02*
X66880952Y-85454819D01*
X67404762Y-84978628D02*
X67404762Y-85454819D01*
X67071429Y-84454819D02*
X67404762Y-84978628D01*
X67404762Y-84978628D02*
X67738095Y-84454819D01*
X119166666Y-60454819D02*
X119357142Y-60454819D01*
X119357142Y-60454819D02*
X119452380Y-60502438D01*
X119452380Y-60502438D02*
X119547618Y-60597676D01*
X119547618Y-60597676D02*
X119595237Y-60788152D01*
X119595237Y-60788152D02*
X119595237Y-61121485D01*
X119595237Y-61121485D02*
X119547618Y-61311961D01*
X119547618Y-61311961D02*
X119452380Y-61407200D01*
X119452380Y-61407200D02*
X119357142Y-61454819D01*
X119357142Y-61454819D02*
X119166666Y-61454819D01*
X119166666Y-61454819D02*
X119071428Y-61407200D01*
X119071428Y-61407200D02*
X118976190Y-61311961D01*
X118976190Y-61311961D02*
X118928571Y-61121485D01*
X118928571Y-61121485D02*
X118928571Y-60788152D01*
X118928571Y-60788152D02*
X118976190Y-60597676D01*
X118976190Y-60597676D02*
X119071428Y-60502438D01*
X119071428Y-60502438D02*
X119166666Y-60454819D01*
X120499999Y-61454819D02*
X120023809Y-61454819D01*
X120023809Y-61454819D02*
X120023809Y-60454819D01*
X120833333Y-60931009D02*
X121166666Y-60931009D01*
X121309523Y-61454819D02*
X120833333Y-61454819D01*
X120833333Y-61454819D02*
X120833333Y-60454819D01*
X120833333Y-60454819D02*
X121309523Y-60454819D01*
X121738095Y-61454819D02*
X121738095Y-60454819D01*
X121738095Y-60454819D02*
X121976190Y-60454819D01*
X121976190Y-60454819D02*
X122119047Y-60502438D01*
X122119047Y-60502438D02*
X122214285Y-60597676D01*
X122214285Y-60597676D02*
X122261904Y-60692914D01*
X122261904Y-60692914D02*
X122309523Y-60883390D01*
X122309523Y-60883390D02*
X122309523Y-61026247D01*
X122309523Y-61026247D02*
X122261904Y-61216723D01*
X122261904Y-61216723D02*
X122214285Y-61311961D01*
X122214285Y-61311961D02*
X122119047Y-61407200D01*
X122119047Y-61407200D02*
X121976190Y-61454819D01*
X121976190Y-61454819D02*
X121738095Y-61454819D01*
%TO.C,SOIL SENSOR *%
D12*
X68330000Y-67460000D02*
X68330000Y-75140000D01*
X68330000Y-64860000D02*
X68330000Y-66190000D01*
X67000000Y-64860000D02*
X68330000Y-64860000D01*
X65670000Y-75140000D02*
X68330000Y-75140000D01*
X65670000Y-67460000D02*
X68330000Y-67460000D01*
X65670000Y-67460000D02*
X65670000Y-75140000D01*
%TO.C,DHT11 *%
X122330000Y-93190000D02*
X122330000Y-98330000D01*
X122330000Y-90590000D02*
X122330000Y-91920000D01*
X121000000Y-90590000D02*
X122330000Y-90590000D01*
X119670000Y-98330000D02*
X122330000Y-98330000D01*
X119670000Y-93190000D02*
X122330000Y-93190000D01*
X119670000Y-93190000D02*
X119670000Y-98330000D01*
%TO.C,RELAY *%
X64670000Y-90270000D02*
X64670000Y-97950000D01*
X64670000Y-90270000D02*
X67330000Y-90270000D01*
X64670000Y-97950000D02*
X67330000Y-97950000D01*
X66000000Y-87670000D02*
X67330000Y-87670000D01*
X67330000Y-87670000D02*
X67330000Y-89000000D01*
X67330000Y-90270000D02*
X67330000Y-97950000D01*
%TO.C,U2*%
X108330000Y-98290000D02*
X108330000Y-62670000D01*
X108330000Y-98290000D02*
X105670000Y-98290000D01*
X108330000Y-62670000D02*
X105670000Y-62670000D01*
X107000000Y-100890000D02*
X105670000Y-100890000D01*
X105670000Y-100890000D02*
X105670000Y-99560000D01*
X105670000Y-98290000D02*
X105670000Y-62670000D01*
%TO.C,U1*%
X80670000Y-65410000D02*
X80670000Y-101030000D01*
X80670000Y-65410000D02*
X83330000Y-65410000D01*
X80670000Y-101030000D02*
X83330000Y-101030000D01*
X82000000Y-62810000D02*
X83330000Y-62810000D01*
X83330000Y-62810000D02*
X83330000Y-64140000D01*
X83330000Y-65410000D02*
X83330000Y-101030000D01*
%TO.C,OLED *%
X122330000Y-66190000D02*
X122330000Y-73870000D01*
X122330000Y-63590000D02*
X122330000Y-64920000D01*
X121000000Y-63590000D02*
X122330000Y-63590000D01*
X119670000Y-73870000D02*
X122330000Y-73870000D01*
X119670000Y-66190000D02*
X122330000Y-66190000D01*
X119670000Y-66190000D02*
X119670000Y-73870000D01*
%TD*%
M02*
