%TF.GenerationSoftware,KiCad,Pcbnew,10.0.4*%
%TF.CreationDate,2026-07-23T16:21:59+03:00*%
%TF.ProjectId,PCB1,50434231-2e6b-4696-9361-645f70636258,rev?*%
%TF.SameCoordinates,Original*%
%TF.FileFunction,Copper,L2,Bot*%
%TF.FilePolarity,Positive*%
%FSLAX46Y46*%
G04 Gerber Fmt 4.6, Leading zero omitted, Abs format (unit mm)*
G04 Created by KiCad (PCBNEW 10.0.4) date 2026-07-23 16:21:59*
%MOMM*%
%LPD*%
G01*
G04 APERTURE LIST*
%TA.AperFunction,ComponentPad*%
%ADD10C,1.700000*%
%TD*%
%TA.AperFunction,ComponentPad*%
%ADD11R,1.700000X1.700000*%
%TD*%
G04 APERTURE END LIST*
D10*
%TO.P,SOIL SENSOR ,4,VCC_4*%
%TO.N,+3V3*%
X67000000Y-73810000D03*
%TO.P,SOIL SENSOR ,3,GND_3*%
%TO.N,<NO NET>*%
X67000000Y-71270000D03*
%TO.P,SOIL SENSOR ,2,DO_2*%
%TO.N,unconnected-(SOIL SENSOR Connector1-DO-Pad2)*%
X67000000Y-68730000D03*
D11*
%TO.P,SOIL SENSOR ,1,A0_1*%
%TO.N,D34*%
X67000000Y-66190000D03*
%TD*%
D10*
%TO.P,DHT11 ,3,-_3*%
%TO.N,<NO NET>*%
X121000000Y-97000000D03*
%TO.P,DHT11 ,2,+_2*%
%TO.N,+3V3*%
X121000000Y-94460000D03*
D11*
%TO.P,DHT11 ,1,DATA_1*%
%TO.N,D2*%
X121000000Y-91920000D03*
%TD*%
%TO.P,RELAY ,1,GND_1*%
%TO.N,<NO NET>*%
X66000000Y-89000000D03*
D10*
%TO.P,RELAY ,2,IN1_2*%
%TO.N,D26*%
X66000000Y-91540000D03*
%TO.P,RELAY ,3,IN2_3*%
%TO.N,unconnected-(RELAY Connector1-IN2-Pad3)*%
X66000000Y-94080000D03*
%TO.P,RELAY ,4,VCC_4*%
%TO.N,+5V*%
X66000000Y-96620000D03*
%TD*%
D11*
%TO.P,U2,1,3V3_1*%
%TO.N,+3V3*%
X107000000Y-99560000D03*
D10*
%TO.P,U2,2,GND_2*%
%TO.N,GND*%
X107000000Y-97020000D03*
%TO.P,U2,3,D15_3*%
%TO.N,unconnected-(U2-D15-Pad3)*%
X107000000Y-94480000D03*
%TO.P,U2,4,D2_4*%
%TO.N,D2*%
X107000000Y-91940000D03*
%TO.P,U2,5,D4_5*%
%TO.N,unconnected-(U2-D4-Pad5)*%
X107000000Y-89400000D03*
%TO.P,U2,6,RX2_6*%
%TO.N,unconnected-(U2-RX2-Pad6)*%
X107000000Y-86860000D03*
%TO.P,U2,7,TX2_7*%
%TO.N,unconnected-(U2-TX2-Pad7)*%
X107000000Y-84320000D03*
%TO.P,U2,8,D5_8*%
%TO.N,unconnected-(U2-D5-Pad8)*%
X107000000Y-81780000D03*
%TO.P,U2,9,D18_9*%
%TO.N,unconnected-(U2-D18-Pad9)*%
X107000000Y-79240000D03*
%TO.P,U2,10,D19_10*%
%TO.N,unconnected-(U2-D19-Pad10)*%
X107000000Y-76700000D03*
%TO.P,U2,11,D21_11*%
%TO.N,D21*%
X107000000Y-74160000D03*
%TO.P,U2,12,RXD_12*%
%TO.N,unconnected-(U2-RXD-Pad12)*%
X107000000Y-71620000D03*
%TO.P,U2,13,TXO_13*%
%TO.N,unconnected-(U2-TXO-Pad13)*%
X107000000Y-69080000D03*
%TO.P,U2,14,D22_14*%
%TO.N,D22*%
X107000000Y-66540000D03*
%TO.P,U2,15,D23_15*%
%TO.N,unconnected-(U2-D23-Pad15)*%
X107000000Y-64000000D03*
%TD*%
D11*
%TO.P,U1,1,\u0395\u039D_1*%
%TO.N,unconnected-(U1-\u0395\u039D-Pad1)*%
X82000000Y-64140000D03*
D10*
%TO.P,U1,2,VP_2*%
%TO.N,unconnected-(U1-VP-Pad2)*%
X82000000Y-66680000D03*
%TO.P,U1,3,VN_3*%
%TO.N,unconnected-(U1-VN-Pad3)*%
X82000000Y-69220000D03*
%TO.P,U1,4,D34_4*%
%TO.N,D34*%
X82000000Y-71760000D03*
%TO.P,U1,5,D35_5*%
%TO.N,unconnected-(U1-D35-Pad5)*%
X82000000Y-74300000D03*
%TO.P,U1,6,D32_6*%
%TO.N,unconnected-(U1-D32-Pad6)*%
X82000000Y-76840000D03*
%TO.P,U1,7,D33_7*%
%TO.N,unconnected-(U1-D33-Pad7)*%
X82000000Y-79380000D03*
%TO.P,U1,8,D25_8*%
%TO.N,unconnected-(U1-D25-Pad8)*%
X82000000Y-81920000D03*
%TO.P,U1,9,D26_9*%
%TO.N,D26*%
X82000000Y-84460000D03*
%TO.P,U1,10,D27_10*%
%TO.N,unconnected-(U1-D27-Pad10)*%
X82000000Y-87000000D03*
%TO.P,U1,11,D14_11*%
%TO.N,unconnected-(U1-D14-Pad11)*%
X82000000Y-89540000D03*
%TO.P,U1,12,D12_12*%
%TO.N,unconnected-(U1-D12-Pad12)*%
X82000000Y-92080000D03*
%TO.P,U1,13,D13_13*%
%TO.N,unconnected-(U1-D13-Pad13)*%
X82000000Y-94620000D03*
%TO.P,U1,14,GND_14*%
%TO.N,unconnected-(U1-GND-Pad14)*%
X82000000Y-97160000D03*
%TO.P,U1,15,VIN_15*%
%TO.N,+5V*%
X82000000Y-99700000D03*
%TD*%
%TO.P,OLED ,4,SDA_4*%
%TO.N,D21*%
X121000000Y-72540000D03*
%TO.P,OLED ,3,SCL_3*%
%TO.N,D22*%
X121000000Y-70000000D03*
%TO.P,OLED ,2,VCC_2*%
%TO.N,+3V3*%
X121000000Y-67460000D03*
D11*
%TO.P,OLED ,1,GND_1*%
%TO.N,<NO NET>*%
X121000000Y-64920000D03*
%TD*%
M02*
