M48
; DRILL file KiCad 10.0.4 date 2026-07-23T16:22:38
; FORMAT={-:-/ absolute / metric / decimal}
; #@! TF.CreationDate,2026-07-23T16:22:38+03:00
; #@! TF.GenerationSoftware,Kicad,Pcbnew,10.0.4
; #@! TF.FileFunction,Plated,1,2,PTH
FMAT,2
METRIC
; #@! TA.AperFunction,Plated,PTH,ComponentDrill
T1C1.000
%
G90
G05
T1
X66.0Y-89.0
X66.0Y-91.54
X66.0Y-94.08
X66.0Y-96.62
X67.0Y-66.19
X67.0Y-68.73
X67.0Y-71.27
X67.0Y-73.81
X82.0Y-64.14
X82.0Y-66.68
X82.0Y-69.22
X82.0Y-71.76
X82.0Y-74.3
X82.0Y-76.84
X82.0Y-79.38
X82.0Y-81.92
X82.0Y-84.46
X82.0Y-87.0
X82.0Y-89.54
X82.0Y-92.08
X82.0Y-94.62
X82.0Y-97.16
X82.0Y-99.7
X107.0Y-64.0
X107.0Y-66.54
X107.0Y-69.08
X107.0Y-71.62
X107.0Y-74.16
X107.0Y-76.7
X107.0Y-79.24
X107.0Y-81.78
X107.0Y-84.32
X107.0Y-86.86
X107.0Y-89.4
X107.0Y-91.94
X107.0Y-94.48
X107.0Y-97.02
X107.0Y-99.56
X121.0Y-64.92
X121.0Y-67.46
X121.0Y-70.0
X121.0Y-72.54
X121.0Y-91.92
X121.0Y-94.46
X121.0Y-97.0
M30
